<?xml version="1.0" encoding="utf-8"?>
<!-- Generator: Adobe Illustrator 24.1.2, SVG Export Plug-In . SVG Version: 6.00 Build 0)  -->
<svg version="1.1" id="Layer_1" xmlns="http://www.w3.org/2000/svg" xmlns:xlink="http://www.w3.org/1999/xlink" x="0px" y="0px"
	 viewBox="0 0 216 216" style="enable-background:new 0 0 216 216;" xml:space="preserve">
<style type="text/css">
	.st0{fill:hsla(0, 0%, 70%, 0.5);}
</style>
<path class="st0" d="M29.53,29.92c0,0.24,0.19,0.43,0.43,0.43c0.24,0,0.43-0.19,0.43-0.43v-1.05c0-0.24-0.19-0.43-0.43-0.43
	c-0.24,0-0.43,0.19-0.43,0.43V29.92z"/>
<path class="st0" d="M29.96,27.04c0.24,0,0.43-0.19,0.43-0.43V24.3c0-0.24-0.19-0.43-0.43-0.43c-0.24,0-0.43,0.19-0.43,0.43v2.31
	C29.53,26.85,29.72,27.04,29.96,27.04z"/>
<path class="st0" d="M28.73,30.63c0.06,0,0.13-0.01,0.19-0.04c0.21-0.1,0.3-0.36,0.2-0.57l-0.46-0.95c-0.1-0.21-0.36-0.3-0.57-0.2
	c-0.21,0.1-0.3,0.36-0.2,0.57l0.46,0.95C28.42,30.54,28.57,30.63,28.73,30.63z"/>
<path class="st0" d="M26.68,24.95c-0.1-0.21-0.36-0.3-0.57-0.2c-0.21,0.1-0.3,0.36-0.2,0.57l1,2.08c0.07,0.15,0.23,0.24,0.39,0.24
	c0.06,0,0.13-0.01,0.19-0.04c0.21-0.1,0.3-0.36,0.2-0.57L26.68,24.95z"/>
<path class="st0" d="M26.59,30.07c-0.15,0.19-0.12,0.46,0.07,0.6l0.82,0.66c0.08,0.06,0.17,0.09,0.27,0.09
	c0.13,0,0.25-0.06,0.34-0.16c0.15-0.19,0.12-0.46-0.07-0.6L27.19,30C27.01,29.85,26.74,29.88,26.59,30.07z"/>
<path class="st0" d="M23.02,27.21c-0.15,0.19-0.12,0.46,0.07,0.6l1.81,1.44c0.08,0.06,0.17,0.09,0.27,0.09
	c0.13,0,0.25-0.06,0.34-0.16c0.15-0.19,0.12-0.46-0.07-0.6l-1.81-1.44C23.43,27,23.16,27.03,23.02,27.21z"/>
<path class="st0" d="M25.76,31.79c-0.05,0.23,0.09,0.46,0.32,0.51l1.03,0.23c0.03,0.01,0.06,0.01,0.1,0.01
	c0.2,0,0.37-0.13,0.42-0.33c0.05-0.23-0.09-0.46-0.32-0.51l-1.03-0.23C26.04,31.42,25.81,31.56,25.76,31.79z"/>
<path class="st0" d="M21.3,30.77c-0.05,0.23,0.09,0.46,0.32,0.51l2.26,0.52c0.03,0.01,0.06,0.01,0.1,0.01c0.2,0,0.37-0.13,0.42-0.33
	c0.05-0.23-0.09-0.46-0.32-0.51l-2.26-0.52C21.58,30.4,21.35,30.54,21.3,30.77z"/>
<path class="st0" d="M25.76,33.71c0.05,0.2,0.22,0.33,0.42,0.33c0.03,0,0.06,0,0.1-0.01l1.03-0.23c0.23-0.05,0.38-0.28,0.32-0.51
	c-0.05-0.23-0.28-0.38-0.51-0.32l-1.03,0.23C25.85,33.25,25.71,33.48,25.76,33.71z"/>
<path class="st0" d="M21.3,34.73c0.05,0.2,0.22,0.33,0.42,0.33c0.03,0,0.06,0,0.1-0.01l2.26-0.51c0.23-0.05,0.38-0.28,0.32-0.51
	c-0.05-0.23-0.28-0.38-0.51-0.32l-2.26,0.51C21.39,34.27,21.25,34.5,21.3,34.73z"/>
<path class="st0" d="M28.08,34.25c-0.15-0.19-0.42-0.22-0.6-0.07l-0.82,0.66c-0.19,0.15-0.22,0.42-0.07,0.6
	c0.08,0.11,0.21,0.16,0.34,0.16c0.09,0,0.19-0.03,0.27-0.09l0.82-0.66C28.2,34.71,28.23,34.43,28.08,34.25z"/>
<path class="st0" d="M25.49,36.31c-0.15-0.19-0.42-0.22-0.6-0.07l-1.81,1.44c-0.19,0.15-0.22,0.42-0.07,0.6
	c0.08,0.11,0.21,0.16,0.34,0.16c0.09,0,0.19-0.03,0.27-0.09l1.81-1.44C25.61,36.77,25.64,36.5,25.49,36.31z"/>
<path class="st0" d="M28.09,36.64c0.06,0.03,0.12,0.04,0.19,0.04c0.16,0,0.31-0.09,0.39-0.24l0.46-0.95c0.1-0.21,0.01-0.47-0.2-0.57
	c-0.21-0.1-0.47-0.01-0.57,0.2l-0.46,0.95C27.79,36.28,27.88,36.53,28.09,36.64z"/>
<path class="st0" d="M27.48,37.9c-0.21-0.1-0.47-0.01-0.57,0.2l-1,2.08c-0.1,0.21-0.01,0.47,0.2,0.57c0.06,0.03,0.12,0.04,0.19,0.04
	c0.16,0,0.31-0.09,0.39-0.24l1-2.08C27.78,38.26,27.69,38,27.48,37.9z"/>
<path class="st0" d="M29.53,36.63c0,0.24,0.19,0.43,0.43,0.43h0c0.24,0,0.43-0.19,0.43-0.43l0-1.05c0-0.24-0.19-0.43-0.43-0.43h0
	c-0.24,0-0.43,0.19-0.43,0.43L29.53,36.63z"/>
<path class="st0" d="M29.53,41.21c0,0.24,0.19,0.43,0.43,0.43h0c0.24,0,0.43-0.19,0.43-0.43l0-2.31c0-0.24-0.19-0.43-0.43-0.43h0
	c-0.24,0-0.43,0.19-0.43,0.43L29.53,41.21z"/>
<path class="st0" d="M32.03,36.07l-0.46-0.95c-0.1-0.21-0.36-0.3-0.57-0.2c-0.21,0.1-0.3,0.36-0.2,0.57l0.46,0.95
	c0.07,0.15,0.23,0.24,0.39,0.24c0.06,0,0.13-0.01,0.19-0.04C32.04,36.54,32.13,36.28,32.03,36.07z"/>
<path class="st0" d="M33.24,40.56c0.07,0.15,0.23,0.24,0.39,0.24c0.06,0,0.13-0.01,0.19-0.04c0.21-0.1,0.3-0.36,0.2-0.57l-1-2.08
	c-0.1-0.21-0.36-0.3-0.57-0.2c-0.21,0.1-0.3,0.36-0.2,0.57L33.24,40.56z"/>
<path class="st0" d="M32.99,35.6c0.13,0,0.25-0.06,0.34-0.16c0.15-0.19,0.12-0.45-0.07-0.6l-0.82-0.66
	c-0.18-0.15-0.45-0.12-0.6,0.07c-0.15,0.19-0.12,0.45,0.07,0.6l0.82,0.66C32.81,35.57,32.9,35.6,32.99,35.6z"/>
<path class="st0" d="M34.49,36.92l1.81,1.44c0.08,0.06,0.17,0.09,0.27,0.09c0.13,0,0.25-0.06,0.34-0.16
	c0.15-0.19,0.12-0.45-0.07-0.6l-1.81-1.44c-0.18-0.15-0.45-0.12-0.6,0.07C34.28,36.5,34.31,36.77,34.49,36.92z"/>
<path class="st0" d="M33.84,33.2l-1.03-0.23c-0.23-0.05-0.46,0.09-0.51,0.32c-0.05,0.23,0.09,0.46,0.32,0.51l1.03,0.23
	c0.03,0.01,0.06,0.01,0.1,0.01c0.2,0,0.37-0.13,0.42-0.33C34.22,33.48,34.07,33.25,33.84,33.2z"/>
<path class="st0" d="M38.3,34.22l-2.26-0.52c-0.23-0.05-0.46,0.09-0.51,0.32s0.09,0.46,0.32,0.51l2.26,0.52
	c0.03,0.01,0.06,0.01,0.1,0.01c0.2,0,0.37-0.13,0.42-0.33C38.67,34.51,38.53,34.28,38.3,34.22z"/>
<path class="st0" d="M33.65,31.47l-1.03,0.23c-0.23,0.05-0.38,0.28-0.32,0.51c0.05,0.2,0.22,0.33,0.42,0.33c0.03,0,0.06,0,0.1-0.01
	l1.03-0.23c0.23-0.05,0.38-0.28,0.32-0.51C34.11,31.57,33.88,31.42,33.65,31.47z"/>
<path class="st0" d="M38.62,30.78c-0.05-0.23-0.28-0.38-0.51-0.32l-2.26,0.51c-0.23,0.05-0.38,0.28-0.32,0.51
	c0.05,0.2,0.22,0.33,0.42,0.33c0.03,0,0.06,0,0.1-0.01l2.26-0.51C38.53,31.24,38.68,31.01,38.62,30.78z"/>
<path class="st0" d="M31.84,31.26c0.08,0.11,0.21,0.16,0.34,0.16c0.09,0,0.19-0.03,0.27-0.09l0.82-0.66
	c0.19-0.15,0.22-0.42,0.07-0.6c-0.15-0.19-0.42-0.22-0.6-0.07l-0.82,0.66C31.72,30.8,31.69,31.07,31.84,31.26z"/>
<path class="st0" d="M36.31,27.15l-1.81,1.44c-0.19,0.15-0.22,0.42-0.07,0.6c0.08,0.11,0.21,0.16,0.34,0.16
	c0.09,0,0.19-0.03,0.27-0.09l1.81-1.44c0.19-0.15,0.22-0.42,0.07-0.6C36.77,27.04,36.5,27,36.31,27.15z"/>
<path class="st0" d="M31.84,28.87c-0.21-0.1-0.47-0.01-0.57,0.2l-0.46,0.95c-0.1,0.21-0.01,0.47,0.2,0.57
	c0.06,0.03,0.12,0.04,0.19,0.04c0.16,0,0.31-0.09,0.39-0.24l0.46-0.95C32.14,29.23,32.05,28.98,31.84,28.87z"/>
<path class="st0" d="M33.82,24.75c-0.21-0.1-0.47-0.01-0.57,0.2l-1.01,2.08c-0.1,0.21-0.01,0.47,0.2,0.57
	c0.06,0.03,0.12,0.04,0.19,0.04c0.16,0,0.31-0.09,0.39-0.24l1.01-2.08C34.13,25.11,34.04,24.86,33.82,24.75z"/>
<path class="st0" d="M44.25,43.39c0,0.24,0.19,0.43,0.43,0.43s0.43-0.19,0.43-0.43v-1.29c0-0.24-0.19-0.43-0.43-0.43
	s-0.43,0.19-0.43,0.43V43.39z"/>
<path class="st0" d="M44.68,39.61c0.24,0,0.43-0.19,0.43-0.43v-2.94c0-0.24-0.19-0.43-0.43-0.43s-0.43,0.19-0.43,0.43v2.94
	C44.25,39.41,44.44,39.61,44.68,39.61z"/>
<path class="st0" d="M43.5,43.56l-0.56-1.16c-0.1-0.21-0.36-0.3-0.57-0.2c-0.21,0.1-0.3,0.36-0.2,0.57l0.56,1.16
	c0.07,0.15,0.23,0.24,0.39,0.24c0.06,0,0.13-0.01,0.19-0.04C43.52,44.03,43.61,43.78,43.5,43.56z"/>
<path class="st0" d="M40.4,37.11c-0.1-0.21-0.36-0.3-0.57-0.2c-0.21,0.1-0.3,0.36-0.2,0.57l1.28,2.65c0.07,0.15,0.23,0.24,0.39,0.24
	c0.06,0,0.13-0.01,0.19-0.04c0.21-0.1,0.3-0.36,0.2-0.57L40.4,37.11z"/>
<path class="st0" d="M40.52,43.68c-0.15,0.19-0.12,0.46,0.07,0.6l1.01,0.8c0.08,0.06,0.17,0.09,0.27,0.09
	c0.13,0,0.25-0.06,0.34-0.16c0.15-0.19,0.12-0.46-0.07-0.6l-1.01-0.8C40.94,43.46,40.67,43.49,40.52,43.68z"/>
<path class="st0" d="M38.84,41.78l-2.3-1.84c-0.18-0.15-0.45-0.12-0.6,0.07c-0.15,0.19-0.12,0.46,0.07,0.6l2.3,1.84
	c0.08,0.06,0.17,0.09,0.27,0.09c0.13,0,0.25-0.06,0.34-0.16C39.05,42.2,39.02,41.93,38.84,41.78z"/>
<path class="st0" d="M39.5,45.81c-0.05,0.23,0.09,0.46,0.32,0.51l1.25,0.29c0.03,0.01,0.06,0.01,0.1,0.01c0.2,0,0.37-0.13,0.42-0.33
	c0.05-0.23-0.09-0.46-0.32-0.51l-1.25-0.29C39.78,45.43,39.55,45.58,39.5,45.81z"/>
<path class="st0" d="M33.77,44.5c-0.05,0.23,0.09,0.46,0.32,0.51l2.87,0.66c0.03,0.01,0.06,0.01,0.1,0.01c0.2,0,0.37-0.13,0.42-0.33
	c0.05-0.23-0.09-0.46-0.32-0.51l-2.87-0.66C34.06,44.12,33.83,44.27,33.77,44.5z"/>
<path class="st0" d="M39.5,48.17c0.05,0.2,0.22,0.33,0.42,0.33c0.03,0,0.06,0,0.1-0.01l1.25-0.29c0.23-0.05,0.38-0.28,0.32-0.51
	c-0.05-0.23-0.28-0.38-0.51-0.32l-1.25,0.29C39.59,47.71,39.44,47.94,39.5,48.17z"/>
<path class="st0" d="M34.19,49.81c0.03,0,0.06,0,0.1-0.01l2.87-0.65c0.23-0.05,0.38-0.28,0.32-0.51c-0.05-0.23-0.28-0.38-0.51-0.32
	l-2.87,0.65c-0.23,0.05-0.38,0.28-0.32,0.51C33.82,49.68,33.99,49.81,34.19,49.81z"/>
<path class="st0" d="M42.2,48.97c-0.15-0.19-0.42-0.22-0.6-0.07l-1.01,0.8c-0.19,0.15-0.22,0.42-0.07,0.6
	c0.08,0.11,0.21,0.16,0.34,0.16c0.09,0,0.19-0.03,0.27-0.09l1.01-0.8C42.32,49.42,42.35,49.15,42.2,48.97z"/>
<path class="st0" d="M36.27,54.12c0.09,0,0.19-0.03,0.27-0.09l2.3-1.83c0.19-0.15,0.22-0.42,0.07-0.6c-0.15-0.19-0.42-0.22-0.6-0.07
	L36,53.36c-0.19,0.15-0.22,0.42-0.07,0.6C36.02,54.07,36.14,54.12,36.27,54.12z"/>
<path class="st0" d="M42.37,51.78c0.06,0.03,0.12,0.04,0.19,0.04c0.16,0,0.31-0.09,0.39-0.24l0.56-1.16c0.1-0.21,0.01-0.47-0.2-0.57
	c-0.21-0.1-0.47-0.01-0.57,0.2l-0.56,1.16C42.07,51.42,42.16,51.68,42.37,51.78z"/>
<path class="st0" d="M39.82,57.07c0.06,0.03,0.12,0.04,0.19,0.04c0.16,0,0.31-0.09,0.39-0.24l1.28-2.65c0.1-0.21,0.01-0.47-0.2-0.57
	c-0.21-0.1-0.47-0.01-0.57,0.2l-1.28,2.65C39.52,56.71,39.61,56.97,39.82,57.07z"/>
<path class="st0" d="M44.25,51.88c0,0.24,0.19,0.43,0.43,0.43h0c0.24,0,0.43-0.19,0.43-0.43l0-1.29c0-0.24-0.19-0.43-0.43-0.43h0
	c-0.24,0-0.43,0.19-0.43,0.43L44.25,51.88z"/>
<path class="st0" d="M44.24,57.75c0,0.24,0.19,0.43,0.43,0.43h0c0.24,0,0.43-0.19,0.43-0.43l0-2.94c0-0.24-0.19-0.43-0.43-0.43h0
	c-0.24,0-0.43,0.19-0.43,0.43L44.24,57.75z"/>
<path class="st0" d="M45.85,50.42l0.56,1.16c0.07,0.15,0.23,0.24,0.39,0.24c0.06,0,0.13-0.01,0.19-0.04c0.21-0.1,0.3-0.36,0.2-0.57
	l-0.56-1.16c-0.1-0.21-0.36-0.3-0.57-0.2C45.84,49.95,45.75,50.21,45.85,50.42z"/>
<path class="st0" d="M49.34,57.12c0.06,0,0.13-0.01,0.19-0.04c0.21-0.1,0.3-0.36,0.2-0.57l-1.28-2.65c-0.1-0.21-0.36-0.3-0.57-0.2
	c-0.21,0.1-0.3,0.36-0.2,0.57l1.28,2.65C49.03,57.03,49.18,57.12,49.34,57.12z"/>
<path class="st0" d="M47.16,48.97c-0.15,0.19-0.12,0.45,0.07,0.6l1.01,0.8c0.08,0.06,0.17,0.09,0.27,0.09
	c0.13,0,0.25-0.06,0.34-0.16c0.15-0.19,0.12-0.45-0.07-0.6l-1.01-0.8C47.57,48.76,47.3,48.79,47.16,48.97z"/>
<path class="st0" d="M53.08,54.13c0.13,0,0.25-0.06,0.34-0.16c0.15-0.19,0.12-0.45-0.07-0.6l-2.3-1.84
	c-0.18-0.15-0.46-0.12-0.6,0.07c-0.15,0.19-0.12,0.45,0.07,0.6l2.3,1.84C52.9,54.1,52.99,54.13,53.08,54.13z"/>
<path class="st0" d="M49.44,48.51c0.2,0,0.37-0.13,0.42-0.33c0.05-0.23-0.09-0.46-0.32-0.51l-1.25-0.29
	c-0.23-0.05-0.46,0.09-0.51,0.32c-0.05,0.23,0.09,0.46,0.32,0.51l1.25,0.29C49.38,48.51,49.41,48.51,49.44,48.51z"/>
<path class="st0" d="M55.17,49.82c0.2,0,0.37-0.13,0.42-0.33c0.05-0.23-0.09-0.46-0.32-0.51l-2.87-0.66
	c-0.23-0.05-0.46,0.09-0.51,0.32c-0.05,0.23,0.09,0.46,0.32,0.51l2.87,0.66C55.1,49.82,55.13,49.82,55.17,49.82z"/>
<path class="st0" d="M49.86,45.81c-0.05-0.23-0.28-0.37-0.51-0.32l-1.25,0.29c-0.23,0.05-0.38,0.28-0.32,0.51
	c0.05,0.2,0.22,0.33,0.42,0.33c0.03,0,0.06,0,0.1-0.01l1.25-0.29C49.77,46.27,49.91,46.04,49.86,45.81z"/>
<path class="st0" d="M55.59,44.51c-0.05-0.23-0.28-0.37-0.51-0.32l-2.87,0.65c-0.23,0.05-0.38,0.28-0.32,0.51
	c0.05,0.2,0.22,0.33,0.42,0.33c0.03,0,0.06,0,0.1-0.01l2.87-0.65C55.49,44.97,55.64,44.74,55.59,44.51z"/>
<path class="st0" d="M47.16,45.02c0.08,0.11,0.21,0.16,0.34,0.16c0.09,0,0.19-0.03,0.27-0.09l1.01-0.8c0.19-0.15,0.22-0.42,0.07-0.6
	c-0.15-0.19-0.42-0.22-0.6-0.07l-1.01,0.8C47.04,44.56,47.01,44.83,47.16,45.02z"/>
<path class="st0" d="M53.43,40.03c-0.15-0.19-0.42-0.22-0.6-0.07l-2.3,1.83c-0.19,0.15-0.22,0.42-0.07,0.6
	c0.08,0.11,0.21,0.16,0.34,0.16c0.09,0,0.19-0.03,0.27-0.09l2.3-1.83C53.55,40.48,53.58,40.21,53.43,40.03z"/>
<path class="st0" d="M46.99,42.21c-0.21-0.1-0.47-0.01-0.57,0.2l-0.56,1.16c-0.1,0.21-0.01,0.47,0.2,0.57
	c0.06,0.03,0.12,0.04,0.19,0.04c0.16,0,0.31-0.09,0.39-0.24l0.56-1.16C47.29,42.56,47.2,42.31,46.99,42.21z"/>
<path class="st0" d="M49.54,36.92c-0.21-0.1-0.47-0.01-0.57,0.2l-1.28,2.65c-0.1,0.21-0.01,0.47,0.2,0.57
	c0.06,0.03,0.12,0.04,0.19,0.04c0.16,0,0.31-0.09,0.39-0.24l1.28-2.65C49.85,37.28,49.76,37.02,49.54,36.92z"/>
<path class="st0" d="M139.07,116.88c-0.26,0.17-0.34,0.52-0.18,0.78c0.17,0.26,0.52,0.34,0.78,0.18l1.18-0.74
	c0.26-0.17,0.34-0.52,0.18-0.78c-0.17-0.26-0.52-0.34-0.78-0.18L139.07,116.88z"/>
<path class="st0" d="M142.6,115.33c0.17,0.26,0.52,0.34,0.78,0.18l2.59-1.63c0.26-0.17,0.34-0.52,0.18-0.78
	c-0.17-0.26-0.52-0.34-0.78-0.18l-2.59,1.63C142.51,114.71,142.43,115.06,142.6,115.33z"/>
<path class="st0" d="M137.72,116.49c0.04,0.07,0.1,0.13,0.18,0.18c0.27,0.17,0.62,0.09,0.78-0.18l0.74-1.18
	c0.17-0.27,0.09-0.61-0.18-0.78c-0.27-0.17-0.62-0.09-0.78,0.18l-0.74,1.18C137.6,116.08,137.61,116.31,137.72,116.49z"/>
<path class="st0" d="M142.62,110.19c0.17-0.27,0.09-0.61-0.18-0.78c-0.27-0.17-0.62-0.09-0.78,0.18l-1.62,2.59
	c-0.12,0.19-0.11,0.42,0,0.6c0.04,0.07,0.1,0.13,0.18,0.18c0.27,0.17,0.62,0.09,0.78-0.18L142.62,110.19z"/>
<path class="st0" d="M136.84,113.7c-0.31-0.03-0.59,0.19-0.63,0.5l-0.15,1.38c-0.02,0.13,0.02,0.26,0.08,0.36
	c0.09,0.14,0.24,0.24,0.42,0.26c0.31,0.03,0.59-0.19,0.63-0.5l0.15-1.38C137.38,114.01,137.15,113.73,136.84,113.7z"/>
<path class="st0" d="M137.51,107.69c-0.31-0.03-0.59,0.19-0.63,0.5l-0.34,3.04c-0.02,0.13,0.02,0.26,0.08,0.36
	c0.09,0.14,0.24,0.24,0.42,0.26c0.31,0.03,0.59-0.19,0.63-0.5l0.34-3.04C138.04,108,137.82,107.72,137.51,107.69z"/>
<path class="st0" d="M134.32,113.98c-0.29,0.1-0.45,0.43-0.35,0.72l0.46,1.31c0.01,0.04,0.03,0.08,0.06,0.11
	c0.14,0.22,0.41,0.32,0.67,0.23c0.29-0.1,0.45-0.43,0.35-0.72l-0.46-1.31C134.94,114.03,134.62,113.88,134.32,113.98z"/>
<path class="st0" d="M132.32,108.28c-0.3,0.1-0.45,0.43-0.35,0.72l1.01,2.88c0.01,0.04,0.03,0.08,0.06,0.11
	c0.14,0.22,0.41,0.32,0.67,0.23c0.3-0.1,0.45-0.43,0.35-0.72l-1.01-2.88C132.94,108.33,132.62,108.18,132.32,108.28z"/>
<path class="st0" d="M132.18,115.33c-0.19,0.19-0.22,0.48-0.08,0.7c0.02,0.04,0.05,0.07,0.08,0.1l0.98,0.98
	c0.22,0.22,0.58,0.22,0.8,0c0.22-0.22,0.22-0.58,0-0.8l-0.98-0.98C132.76,115.11,132.4,115.11,132.18,115.33z"/>
<path class="st0" d="M127.9,111.07c-0.19,0.19-0.22,0.48-0.08,0.7c0.02,0.04,0.05,0.07,0.08,0.1l2.16,2.16
	c0.22,0.22,0.58,0.22,0.8,0c0.22-0.22,0.22-0.58,0-0.8l-2.16-2.16C128.48,110.85,128.12,110.85,127.9,111.07z"/>
<path class="st0" d="M133.22,118.31c0.1-0.3-0.05-0.62-0.35-0.72l-1.31-0.46c-0.3-0.1-0.62,0.05-0.72,0.35
	c-0.06,0.17-0.03,0.35,0.06,0.49c0.07,0.1,0.17,0.19,0.29,0.23l1.31,0.46C132.79,118.76,133.12,118.61,133.22,118.31z"/>
<path class="st0" d="M129.09,116.87c0.1-0.3-0.05-0.62-0.35-0.72l-2.89-1.01c-0.3-0.1-0.62,0.05-0.72,0.35
	c-0.06,0.17-0.03,0.35,0.06,0.49c0.07,0.1,0.17,0.19,0.29,0.23l2.89,1.01C128.66,117.32,128.98,117.17,129.09,116.87z"/>
<path class="st0" d="M130.56,120c0.01,0.09,0.04,0.17,0.08,0.24c0.11,0.18,0.32,0.29,0.54,0.26l1.38-0.16
	c0.31-0.04,0.53-0.32,0.5-0.63c-0.03-0.31-0.32-0.53-0.63-0.5l-1.38,0.16C130.74,119.41,130.52,119.69,130.56,120z"/>
<path class="st0" d="M128.71,120.21c-0.03-0.31-0.32-0.53-0.63-0.5l-3.04,0.35c-0.31,0.04-0.53,0.32-0.5,0.63
	c0.01,0.09,0.04,0.17,0.08,0.24c0.11,0.18,0.32,0.29,0.54,0.26l3.04-0.35C128.53,120.8,128.75,120.52,128.71,120.21z"/>
<path class="st0" d="M131.57,121.61c-0.27,0.17-0.34,0.52-0.18,0.78l0,0c0.17,0.26,0.52,0.34,0.78,0.18l1.18-0.74
	c0.27-0.17,0.34-0.52,0.18-0.78l0,0c-0.17-0.26-0.52-0.34-0.78-0.18L131.57,121.61z"/>
<path class="st0" d="M126.46,124.83c-0.26,0.17-0.34,0.52-0.18,0.78l0,0c0.17,0.26,0.52,0.34,0.78,0.18l2.59-1.63
	c0.26-0.17,0.34-0.52,0.18-0.78l0,0c-0.17-0.26-0.52-0.34-0.78-0.18L126.46,124.83z"/>
<path class="st0" d="M133.97,124l0.74-1.18c0.17-0.27,0.09-0.62-0.18-0.78c-0.27-0.17-0.61-0.09-0.78,0.18l-0.74,1.18
	c-0.12,0.19-0.11,0.43,0,0.6c0.04,0.07,0.1,0.13,0.18,0.18C133.45,124.35,133.8,124.27,133.97,124z"/>
<path class="st0" d="M129.8,128.52c-0.12,0.19-0.11,0.43,0,0.6c0.04,0.07,0.1,0.13,0.18,0.18c0.27,0.17,0.61,0.09,0.78-0.18
	l1.62-2.59c0.17-0.27,0.09-0.61-0.18-0.78c-0.27-0.17-0.61-0.09-0.78,0.18L129.8,128.52z"/>
<path class="st0" d="M135.17,124.75c0.09,0.14,0.24,0.24,0.42,0.26c0.31,0.03,0.59-0.19,0.63-0.5l0.15-1.38
	c0.04-0.31-0.19-0.59-0.5-0.63c-0.31-0.03-0.59,0.19-0.63,0.5l-0.15,1.38C135.07,124.52,135.1,124.65,135.17,124.75z"/>
<path class="st0" d="M134.75,127.36l-0.34,3.04c-0.02,0.13,0.02,0.26,0.08,0.36c0.09,0.14,0.24,0.24,0.42,0.26
	c0.31,0.03,0.59-0.19,0.63-0.5l0.34-3.04c0.03-0.31-0.19-0.59-0.5-0.63C135.07,126.82,134.79,127.05,134.75,127.36z"/>
<path class="st0" d="M138.45,124.01l-0.46-1.31c-0.1-0.3-0.43-0.45-0.72-0.35c-0.3,0.1-0.45,0.43-0.35,0.72l0.46,1.31
	c0.01,0.04,0.03,0.08,0.06,0.12c0.14,0.22,0.41,0.32,0.67,0.23C138.39,124.62,138.55,124.3,138.45,124.01z"/>
<path class="st0" d="M140.45,129.71l-1.01-2.88c-0.1-0.29-0.43-0.45-0.72-0.35s-0.45,0.43-0.35,0.72l1.01,2.88
	c0.01,0.04,0.03,0.08,0.06,0.12c0.14,0.22,0.41,0.32,0.67,0.23C140.4,130.33,140.55,130,140.45,129.71z"/>
<path class="st0" d="M140.24,122.58l-0.98-0.98c-0.22-0.22-0.58-0.22-0.8,0c-0.19,0.19-0.22,0.48-0.08,0.7
	c0.02,0.04,0.05,0.07,0.08,0.1l0.98,0.98c0.22,0.22,0.58,0.22,0.8,0C140.46,123.16,140.46,122.8,140.24,122.58z"/>
<path class="st0" d="M144.52,127.65c0.22-0.22,0.22-0.58,0-0.8l-2.16-2.16c-0.22-0.22-0.58-0.22-0.8,0
	c-0.19,0.19-0.22,0.48-0.08,0.7c0.02,0.04,0.05,0.07,0.08,0.1l2.16,2.16C143.94,127.87,144.3,127.87,144.52,127.65z"/>
<path class="st0" d="M139.21,120.4c-0.06,0.17-0.03,0.35,0.06,0.49c0.07,0.1,0.17,0.19,0.29,0.23l1.31,0.46
	c0.3,0.1,0.62-0.05,0.72-0.35c0.1-0.3-0.05-0.62-0.35-0.72l-1.31-0.46C139.63,119.95,139.31,120.1,139.21,120.4z"/>
<path class="st0" d="M146.95,122.5l-2.89-1.01c-0.3-0.1-0.62,0.05-0.72,0.35c-0.06,0.17-0.03,0.35,0.06,0.49
	c0.07,0.1,0.17,0.19,0.29,0.23l2.89,1.01c0.3,0.1,0.62-0.05,0.72-0.35C147.4,122.93,147.24,122.6,146.95,122.5z"/>
<path class="st0" d="M141.87,118.71c-0.03-0.31-0.32-0.53-0.63-0.5l-1.38,0.16c-0.31,0.04-0.53,0.32-0.5,0.63
	c0.01,0.09,0.04,0.17,0.08,0.24c0.11,0.18,0.32,0.29,0.54,0.26l1.38-0.16C141.68,119.31,141.91,119.02,141.87,118.71z"/>
<path class="st0" d="M147.88,118.03c-0.04-0.31-0.32-0.53-0.63-0.5l-3.04,0.34c-0.31,0.04-0.53,0.32-0.5,0.63
	c0.01,0.09,0.04,0.17,0.08,0.24c0.11,0.18,0.32,0.29,0.54,0.26l3.04-0.34C147.69,118.62,147.91,118.34,147.88,118.03z"/>
<path class="st0" d="M134.4,142.82c-0.26,0.17-0.34,0.52-0.18,0.78c0.17,0.26,0.52,0.34,0.78,0.18l1.44-0.91
	c0.26-0.17,0.34-0.52,0.18-0.78s-0.52-0.34-0.78-0.18L134.4,142.82z"/>
<path class="st0" d="M138.93,140.63c0.17,0.26,0.52,0.34,0.78,0.18l3.29-2.07c0.26-0.17,0.34-0.52,0.18-0.78
	c-0.17-0.26-0.52-0.34-0.78-0.18l-3.29,2.07C138.84,140.02,138.76,140.37,138.93,140.63z"/>
<path class="st0" d="M133.68,142.11l0.9-1.44c0.17-0.27,0.09-0.61-0.18-0.78c-0.27-0.17-0.62-0.09-0.78,0.18l-0.9,1.44
	c-0.12,0.19-0.11,0.42,0,0.6c0.04,0.07,0.1,0.13,0.18,0.18C133.16,142.45,133.51,142.37,133.68,142.11z"/>
<path class="st0" d="M138.7,134.09c0.17-0.27,0.09-0.61-0.18-0.78c-0.27-0.17-0.62-0.09-0.78,0.18l-2.06,3.3
	c-0.12,0.19-0.11,0.42,0,0.6c0.04,0.07,0.1,0.13,0.18,0.18c0.27,0.17,0.62,0.09,0.78-0.18L138.7,134.09z"/>
<path class="st0" d="M131.45,138.86c-0.31-0.03-0.59,0.19-0.63,0.5l-0.19,1.69c-0.02,0.13,0.02,0.26,0.08,0.36
	c0.09,0.14,0.24,0.24,0.42,0.26c0.31,0.03,0.59-0.19,0.63-0.5l0.19-1.69C131.99,139.17,131.76,138.89,131.45,138.86z"/>
<path class="st0" d="M132.38,135.64l0.43-3.86c0.04-0.31-0.19-0.59-0.5-0.63c-0.31-0.03-0.59,0.19-0.63,0.5l-0.43,3.86
	c-0.02,0.13,0.02,0.26,0.08,0.36c0.09,0.14,0.24,0.24,0.42,0.26C132.06,136.17,132.34,135.95,132.38,135.64z"/>
<path class="st0" d="M128.35,139.21c-0.29,0.1-0.45,0.43-0.35,0.72l0.56,1.6c0.01,0.04,0.03,0.08,0.06,0.11
	c0.14,0.22,0.41,0.32,0.67,0.23c0.29-0.1,0.45-0.43,0.35-0.72l-0.56-1.6C128.97,139.26,128.64,139.11,128.35,139.21z"/>
<path class="st0" d="M125.77,131.89c-0.29,0.1-0.45,0.43-0.35,0.72l1.29,3.67c0.01,0.04,0.03,0.08,0.06,0.11
	c0.14,0.22,0.41,0.32,0.67,0.23c0.29-0.1,0.45-0.43,0.35-0.72l-1.29-3.67C126.39,131.95,126.07,131.79,125.77,131.89z"/>
<path class="st0" d="M125.7,140.88c-0.19,0.19-0.22,0.48-0.08,0.7c0.02,0.04,0.05,0.07,0.08,0.1l1.2,1.2c0.22,0.22,0.58,0.22,0.8,0
	c0.22-0.22,0.22-0.58,0-0.8l-1.2-1.2C126.28,140.66,125.93,140.66,125.7,140.88z"/>
<path class="st0" d="M120.13,136.1c0.02,0.04,0.05,0.07,0.08,0.1l2.75,2.75c0.22,0.22,0.58,0.22,0.8,0c0.22-0.22,0.22-0.58,0-0.8
	l-2.75-2.75c-0.22-0.22-0.58-0.22-0.8,0C120.02,135.59,120,135.89,120.13,136.1z"/>
<path class="st0" d="M126.72,144.46c0.1-0.3-0.05-0.62-0.35-0.72l-1.61-0.56c-0.3-0.1-0.62,0.05-0.72,0.35
	c-0.06,0.17-0.03,0.35,0.06,0.49c0.07,0.1,0.17,0.19,0.29,0.23l1.61,0.56C126.29,144.91,126.62,144.75,126.72,144.46z"/>
<path class="st0" d="M116.78,141.46c0.07,0.1,0.17,0.19,0.29,0.23l3.67,1.28c0.3,0.1,0.62-0.05,0.72-0.35
	c0.1-0.3-0.05-0.62-0.35-0.72l-3.67-1.28c-0.3-0.1-0.62,0.05-0.72,0.35C116.66,141.14,116.69,141.32,116.78,141.46z"/>
<path class="st0" d="M123.7,146.63c0.01,0.09,0.04,0.17,0.08,0.24c0.11,0.18,0.32,0.29,0.54,0.26l1.69-0.19
	c0.31-0.04,0.53-0.32,0.5-0.63c-0.03-0.31-0.31-0.53-0.63-0.5L124.2,146C123.89,146.04,123.66,146.32,123.7,146.63z"/>
<path class="st0" d="M115.99,147.51c0.01,0.09,0.04,0.17,0.08,0.24c0.11,0.18,0.32,0.29,0.54,0.26l3.86-0.44
	c0.31-0.04,0.53-0.32,0.5-0.63c-0.03-0.31-0.32-0.53-0.63-0.5l-3.86,0.44C116.18,146.92,115.96,147.2,115.99,147.51z"/>
<path class="st0" d="M124.91,148.8c-0.27,0.17-0.34,0.52-0.18,0.78l0,0c0.17,0.26,0.52,0.34,0.78,0.18l1.44-0.91
	c0.27-0.17,0.34-0.52,0.18-0.78l0,0c-0.17-0.26-0.52-0.34-0.78-0.18L124.91,148.8z"/>
<path class="st0" d="M118.35,152.93c-0.27,0.17-0.34,0.52-0.18,0.78l0,0c0.17,0.26,0.52,0.34,0.78,0.18l3.29-2.07
	c0.27-0.17,0.34-0.52,0.18-0.78l0,0c-0.17-0.26-0.52-0.34-0.78-0.18L118.35,152.93z"/>
<path class="st0" d="M127.67,149.57l-0.9,1.44c-0.12,0.19-0.11,0.43,0,0.6c0.04,0.07,0.1,0.13,0.18,0.18
	c0.27,0.17,0.61,0.09,0.78-0.18l0.9-1.44c0.17-0.26,0.09-0.61-0.18-0.78C128.19,149.22,127.84,149.3,127.67,149.57z"/>
<path class="st0" d="M122.65,158.18c0.04,0.07,0.1,0.13,0.18,0.18c0.27,0.17,0.61,0.09,0.78-0.18l2.06-3.29
	c0.17-0.26,0.09-0.61-0.18-0.78c-0.27-0.17-0.61-0.09-0.78,0.18l-2.06,3.29C122.53,157.77,122.54,158,122.65,158.18z"/>
<path class="st0" d="M130.21,150c-0.31-0.03-0.59,0.19-0.63,0.5l-0.19,1.69c-0.02,0.13,0.02,0.26,0.08,0.36
	c0.09,0.14,0.24,0.24,0.42,0.26c0.31,0.03,0.59-0.19,0.63-0.5l0.19-1.69C130.75,150.32,130.52,150.03,130.21,150z"/>
<path class="st0" d="M128.62,160.26c0.09,0.14,0.24,0.24,0.42,0.26c0.31,0.03,0.59-0.19,0.63-0.5l0.43-3.86
	c0.04-0.31-0.19-0.59-0.5-0.63c-0.31-0.03-0.59,0.19-0.63,0.5l-0.43,3.86C128.52,160.03,128.55,160.16,128.62,160.26z"/>
<path class="st0" d="M132.34,152.23c0.14,0.22,0.41,0.32,0.67,0.23c0.3-0.1,0.45-0.43,0.35-0.72l-0.56-1.6
	c-0.1-0.29-0.43-0.45-0.72-0.35c-0.3,0.1-0.45,0.43-0.35,0.72l0.56,1.6C132.29,152.16,132.31,152.19,132.34,152.23z"/>
<path class="st0" d="M134.9,159.55c0.14,0.22,0.41,0.32,0.67,0.23c0.3-0.1,0.45-0.43,0.35-0.72l-1.29-3.67
	c-0.1-0.29-0.43-0.45-0.72-0.35c-0.3,0.1-0.45,0.43-0.35,0.72l1.29,3.67C134.86,159.47,134.88,159.51,134.9,159.55z"/>
<path class="st0" d="M135.65,150.8c0.22-0.22,0.22-0.58,0-0.8l-1.2-1.2c-0.22-0.22-0.58-0.22-0.8,0c-0.19,0.19-0.22,0.48-0.08,0.7
	c0.02,0.04,0.05,0.07,0.08,0.1l1.2,1.2C135.07,151.02,135.43,151.02,135.65,150.8z"/>
<path class="st0" d="M141.14,156.28c0.22-0.22,0.22-0.58,0-0.8l-2.75-2.75c-0.22-0.22-0.58-0.22-0.8,0
	c-0.19,0.19-0.22,0.48-0.08,0.7c0.02,0.04,0.05,0.07,0.08,0.1l2.75,2.75C140.56,156.5,140.92,156.5,141.14,156.28z"/>
<path class="st0" d="M134.63,147.22c-0.06,0.17-0.03,0.35,0.06,0.49c0.07,0.1,0.17,0.19,0.29,0.23l1.6,0.56
	c0.3,0.1,0.62-0.05,0.72-0.35c0.1-0.3-0.05-0.62-0.35-0.72l-1.6-0.56C135.06,146.77,134.74,146.92,134.63,147.22z"/>
<path class="st0" d="M144.63,150.71c0.1-0.3-0.05-0.62-0.35-0.72l-3.67-1.28c-0.3-0.1-0.62,0.05-0.72,0.35
	c-0.06,0.17-0.03,0.35,0.06,0.49c0.07,0.1,0.17,0.19,0.29,0.23l3.67,1.28C144.2,151.16,144.53,151,144.63,150.71z"/>
<path class="st0" d="M137.65,145.04c-0.04-0.31-0.32-0.53-0.63-0.5l-1.69,0.19c-0.31,0.04-0.53,0.32-0.5,0.63
	c0.01,0.09,0.04,0.17,0.08,0.24c0.11,0.18,0.32,0.29,0.54,0.26l1.69-0.19C137.47,145.64,137.69,145.36,137.65,145.04z"/>
<path class="st0" d="M145.36,144.17c-0.04-0.31-0.32-0.53-0.63-0.5l-3.86,0.44c-0.31,0.04-0.53,0.32-0.5,0.63
	c0.01,0.09,0.04,0.17,0.08,0.24c0.11,0.18,0.32,0.29,0.54,0.26l3.86-0.44C145.17,144.76,145.4,144.48,145.36,144.17z"/>
<polygon class="st0" points="42.99,188.42 43.21,188.63 51.66,188.63 52.84,187.46 43.95,187.46 "/>
<polygon class="st0" points="54.63,180.79 50.62,180.79 49.44,181.96 55.8,181.96 "/>
<polygon class="st0" points="51.66,179.74 53.58,179.74 52.62,178.78 "/>
<polygon class="st0" points="57.78,182.46 58.33,177.52 53.39,178.07 "/>
<polygon class="st0" points="48.39,183.01 47.22,184.19 56.11,184.19 57.07,183.23 56.85,183.01 "/>
<path class="st0" d="M44.84,190.27l-2.97,2.97c-0.83,0.83-2.1,1.04-3.15,0.51c-0.26-0.13-0.57-0.02-0.7,0.23
	c-0.13,0.26-0.02,0.57,0.23,0.7c1.45,0.73,3.21,0.44,4.36-0.71l3.06-3.06c0.02-0.02,0.03-0.04,0.04-0.07h3.73l1.17-1.17h-6.36
	L44.84,190.27z"/>
<polygon class="st0" points="47.44,192.86 48.39,191.9 46.48,191.9 "/>
<polygon class="st0" points="45,186.41 53.89,186.41 55.06,185.24 46.17,185.24 "/>
<path class="st0" d="M39.01,192.65c0-0.29-0.23-0.52-0.52-0.52h-0.52c-0.29,0-0.52,0.23-0.52,0.52c0,0.29,0.23,0.52,0.52,0.52h0.52
	C38.78,193.17,39.01,192.94,39.01,192.65z"/>
<path class="st0" d="M36.92,192.12c0.29,0,0.52-0.23,0.52-0.52v-0.52c0-0.29-0.23-0.52-0.52-0.52c-0.29,0-0.52,0.23-0.52,0.52v0.52
	C36.39,191.89,36.63,192.12,36.92,192.12z"/>
<path class="st0" d="M36.92,193.17c-0.29,0-0.52,0.23-0.52,0.52v0.52c0,0.29,0.23,0.52,0.52,0.52c0.29,0,0.52-0.23,0.52-0.52v-0.52
	C37.44,193.4,37.21,193.17,36.92,193.17z"/>
<path class="st0" d="M35.87,192.12h-0.52c-0.29,0-0.52,0.23-0.52,0.52c0,0.29,0.23,0.52,0.52,0.52h0.52c0.29,0,0.52-0.23,0.52-0.52
	C36.39,192.36,36.16,192.12,35.87,192.12z"/>
<path class="st0" d="M40.01,177.99l0.68,2.51c0.04,0.14,0.18,0.22,0.32,0.18c0.08-0.02,0.14-0.08,0.17-0.15l1.05-2.54
	c0.04-0.1,0.15-0.17,0.26-0.16l2.74,0.2c0.14,0.01,0.27-0.1,0.28-0.24c0.01-0.08-0.03-0.16-0.09-0.21l-1.94-1.73
	c-0.09-0.08-0.11-0.2-0.06-0.31l0.93-1.9c0.06-0.13,0.01-0.29-0.12-0.35c-0.08-0.04-0.18-0.03-0.25,0.01l-2.01,1.24
	c-0.09,0.06-0.21,0.05-0.3-0.02l-2.17-1.7c-0.11-0.09-0.28-0.07-0.37,0.04c-0.05,0.06-0.07,0.14-0.05,0.22l0.55,2.71
	c0.02,0.11-0.03,0.22-0.12,0.28l-2.01,1.24c-0.12,0.08-0.16,0.24-0.09,0.36c0.05,0.08,0.13,0.12,0.22,0.12l2.12,0.02
	C39.87,177.8,39.98,177.88,40.01,177.99z"/>
<path class="st0" d="M38.69,171.74c0.29,0,0.52-0.24,0.52-0.52c0-0.08-0.02-0.16-0.05-0.23l-1.86-3.76
	c-0.13-0.26-0.44-0.37-0.7-0.24s-0.37,0.44-0.24,0.7l1.86,3.76C38.3,171.63,38.49,171.74,38.69,171.74z"/>
<path class="st0" d="M48.77,169.15c-0.13-0.26-0.44-0.37-0.7-0.24c0,0,0,0,0,0l-3.76,1.86c-0.26,0.12-0.38,0.43-0.26,0.69
	c0.12,0.26,0.43,0.38,0.69,0.26c0.01,0,0.02-0.01,0.03-0.01l3.76-1.86C48.79,169.72,48.9,169.41,48.77,169.15
	C48.77,169.15,48.77,169.15,48.77,169.15z"/>
<path class="st0" d="M31.63,178.22l3.76-1.86c0.26-0.13,0.37-0.44,0.24-0.7c-0.13-0.26-0.44-0.37-0.7-0.24l-3.76,1.86
	c-0.26,0.13-0.37,0.44-0.24,0.7S31.37,178.35,31.63,178.22z"/>
<path class="st0" d="M42.38,167.22c-0.27-0.09-0.57,0.05-0.66,0.33c0,0,0,0,0,0l-0.71,2.11c-0.09,0.27,0.05,0.57,0.33,0.66
	c0,0,0,0,0,0c0.05,0.02,0.11,0.03,0.17,0.03c0.22,0,0.42-0.14,0.5-0.36l0.71-2.11C42.8,167.61,42.66,167.31,42.38,167.22z"/>
<path class="st0" d="M42.93,166.14c0.22,0,0.42-0.14,0.5-0.36l0.24-0.7c0.1-0.27-0.04-0.57-0.31-0.67c-0.27-0.1-0.57,0.04-0.67,0.31
	c0,0.01-0.01,0.01-0.01,0.02l-0.24,0.7c-0.09,0.27,0.05,0.57,0.33,0.66C42.81,166.13,42.87,166.14,42.93,166.14z"/>
<path class="st0" d="M33.27,171.73c-0.09,0.27,0.05,0.57,0.33,0.66c0,0,0,0,0,0l2.11,0.71c0.28,0.08,0.57-0.07,0.65-0.35
	c0.08-0.27-0.06-0.55-0.32-0.65l-2.11-0.71C33.66,171.31,33.36,171.46,33.27,171.73z"/>
<path class="st0" d="M31.12,170.45c-0.28-0.08-0.57,0.07-0.65,0.35c-0.08,0.27,0.06,0.55,0.32,0.65l0.7,0.24
	c0.28,0.08,0.57-0.07,0.65-0.35c0.08-0.27-0.06-0.55-0.32-0.65L31.12,170.45z"/>
<path class="st0" d="M36.13,166.58c0.29,0,0.52-0.23,0.53-0.52c0-0.08-0.02-0.16-0.05-0.23l-0.23-0.47
	c-0.13-0.26-0.44-0.37-0.7-0.24c-0.26,0.13-0.37,0.44-0.24,0.7l0.23,0.47C35.75,166.46,35.93,166.57,36.13,166.58z"/>
<path class="st0" d="M50.42,167.75l-0.47,0.23c-0.26,0.13-0.35,0.45-0.22,0.71c0.13,0.25,0.43,0.35,0.69,0.23l0.47-0.23
	c0.26-0.13,0.36-0.45,0.23-0.7C50.98,167.73,50.67,167.62,50.42,167.75L50.42,167.75z"/>
<path class="st0" d="M29.05,179.43c0.08,0,0.16-0.02,0.23-0.05l0.47-0.23c0.26-0.13,0.36-0.44,0.23-0.7
	c-0.13-0.26-0.44-0.36-0.7-0.24l-0.47,0.23c-0.26,0.13-0.37,0.44-0.24,0.7C28.66,179.32,28.85,179.44,29.05,179.43L29.05,179.43z"/>
<path class="st0" d="M59.44,171.69h-0.52c-0.29,0-0.52,0.23-0.52,0.52c0,0.29,0.23,0.52,0.52,0.52h0.52c0.29,0,0.52-0.23,0.52-0.52
	C59.97,171.92,59.73,171.69,59.44,171.69z"/>
<path class="st0" d="M57.87,170.12c-0.29,0-0.52,0.23-0.52,0.52v0.52c0,0.29,0.23,0.52,0.52,0.52c0.29,0,0.52-0.23,0.52-0.52v-0.52
	C58.4,170.35,58.16,170.12,57.87,170.12z"/>
<path class="st0" d="M57.87,172.74c-0.29,0-0.52,0.23-0.52,0.52v0.52c0,0.29,0.23,0.52,0.52,0.52c0.29,0,0.52-0.23,0.52-0.52v-0.52
	C58.4,172.97,58.16,172.74,57.87,172.74z"/>
<path class="st0" d="M56.3,172.74h0.52c0.29,0,0.52-0.23,0.52-0.52c0-0.29-0.23-0.52-0.52-0.52H56.3c-0.29,0-0.52,0.23-0.52,0.52
	C55.78,172.5,56.01,172.74,56.3,172.74z"/>
<path class="st0" d="M46.76,175.32L46.76,175.32l2.22-0.02c0.29,0,0.52-0.24,0.52-0.53c0-0.29-0.24-0.52-0.53-0.52h0l-2.22,0.02
	c-0.29,0-0.52,0.24-0.52,0.53C46.24,175.09,46.47,175.32,46.76,175.32z"/>
<path class="st0" d="M50.03,174.74c0.01,0.28,0.24,0.51,0.52,0.51h0.02l0.52-0.02c0.29-0.01,0.51-0.25,0.51-0.54
	c0-0.28-0.24-0.51-0.52-0.51c-0.01,0-0.01,0-0.02,0l-0.52,0.02C50.25,174.21,50.02,174.45,50.03,174.74z"/>
<path class="st0" d="M32.2,193.17h-0.52c-0.29,0-0.52,0.23-0.52,0.52c0,0.29,0.23,0.52,0.52,0.52h0.52c0.29,0,0.52-0.23,0.52-0.52
	C32.72,193.4,32.49,193.17,32.2,193.17z"/>
<path class="st0" d="M30.11,192.12v0.52c0,0.29,0.23,0.52,0.52,0.52s0.52-0.23,0.52-0.52v-0.52c0-0.29-0.23-0.52-0.52-0.52
	S30.11,191.83,30.11,192.12z"/>
<path class="st0" d="M30.63,194.22c-0.29,0-0.52,0.23-0.52,0.52v0.52c0,0.29,0.23,0.52,0.52,0.52s0.52-0.23,0.52-0.52v-0.52
	C31.15,194.45,30.92,194.22,30.63,194.22z"/>
<path class="st0" d="M29.58,193.17h-0.52c-0.29,0-0.52,0.23-0.52,0.52c0,0.29,0.23,0.52,0.52,0.52h0.52c0.29,0,0.52-0.23,0.52-0.52
	C30.11,193.4,29.87,193.17,29.58,193.17z"/>
<path class="st0" d="M37.89,179.99c-0.26-0.12-0.57,0-0.69,0.27l-0.9,2.03c-0.12,0.26-0.01,0.57,0.26,0.69
	c0.26,0.12,0.57,0.01,0.69-0.26c0,0,0-0.01,0.01-0.01l0.9-2.03C38.27,180.42,38.15,180.11,37.89,179.99z"/>
<path class="st0" d="M35.78,184.92c0.27,0.11,0.57-0.02,0.68-0.28l0.2-0.48c0.12-0.27-0.01-0.57-0.27-0.69
	c-0.27-0.12-0.57,0.01-0.69,0.27c0,0.01,0,0.01-0.01,0.02l-0.2,0.48C35.38,184.51,35.51,184.81,35.78,184.92z"/>
<path class="st0" d="M143.36,48.1l-0.68-0.8c-0.06-0.06-0.11-0.06-0.17-0.06c-0.06,0-0.11,0.06-0.11,0.11l-0.23,1.02l-0.97,0.4
	c-0.06,0-0.06,0.06-0.11,0.11c0,0.06,0,0.11,0.06,0.11l0.91,0.51l0.06,1.08c0,0.06,0.06,0.11,0.11,0.11h0.06
	c0.06,0,0.06,0,0.11-0.06l0.8-0.68l1.02,0.23c0.06,0,0.11,0,0.17-0.06c0.06-0.06,0.06-0.11,0-0.17l-0.46-0.97l0.57-0.91
	c0-0.06,0-0.11,0-0.17c0-0.06-0.06-0.06-0.11-0.06L143.36,48.1z"/>
<path class="st0" d="M99.38,41.33c0,0.06,0.06,0.11,0.11,0.11l0,0c0.06,0,0.11,0,0.11-0.06l0.57-0.91l1.08-0.06
	c0.06,0,0.11-0.06,0.11-0.11s0-0.11,0-0.17l-0.68-0.8l0.28-1.02c0-0.06,0-0.11-0.06-0.17c-0.06-0.06-0.11-0.06-0.17,0l-0.97,0.4
	l-0.91-0.57c-0.06-0.06-0.11-0.06-0.17,0c-0.06,0-0.06,0.06-0.06,0.11l0.06,1.08l-0.85,0.68c-0.06,0.06-0.06,0.11-0.06,0.11
	c0,0.06,0.06,0.11,0.11,0.11l1.02,0.23L99.38,41.33z"/>
<path class="st0" d="M137.33,16.64l1.08,0.11l0.51,0.97c0,0.06,0.06,0.06,0.11,0.06l0,0c0.06,0,0.11-0.06,0.11-0.06l0.46-0.97
	l1.02-0.17c0.06,0,0.11-0.06,0.11-0.11s0-0.11-0.06-0.17l-0.8-0.74l0.17-1.08c0-0.06,0-0.11-0.06-0.11c-0.06-0.06-0.11-0.06-0.17,0
	l-0.91,0.51l-0.97-0.4c-0.06,0-0.11,0-0.17,0c-0.06,0.06-0.06,0.11-0.06,0.11l0.23,1.02l-0.74,0.74c-0.06,0.06-0.06,0.11-0.06,0.17
	C137.21,16.64,137.27,16.64,137.33,16.64z"/>
<path class="st0" d="M103.47,19.25l1.08,0.11l0.51,0.97c0,0.06,0.06,0.06,0.11,0.06l0,0c0.06,0,0.11-0.06,0.11-0.06l0.46-0.97
	l1.02-0.17c0.06,0,0.11-0.06,0.11-0.11c0-0.06,0-0.11-0.06-0.17l-0.74-0.68l0.17-1.08c0-0.06,0-0.11-0.06-0.11
	c-0.06-0.06-0.11-0.06-0.17,0l-0.91,0.51l-0.97-0.46c-0.06,0-0.11,0-0.17,0c-0.06,0.06-0.06,0.11-0.06,0.11l0.23,1.02l-0.74,0.74
	c-0.06,0.06-0.06,0.11-0.06,0.17C103.42,19.2,103.42,19.25,103.47,19.25z"/>
<path class="st0" d="M104.33,52.48c-0.06-0.06-0.06-0.06-0.11-0.06l-1.08,0.11l-0.68-0.8c-0.06-0.06-0.11-0.06-0.17-0.06
	s-0.11,0.06-0.11,0.11l-0.23,1.02l-0.97,0.4c-0.06,0-0.06,0.06-0.11,0.11c0,0.06,0,0.11,0.06,0.11l0.91,0.51l0.11,1.08
	c0,0.06,0.06,0.11,0.11,0.11h0.06c0.06,0,0.06,0,0.11-0.06l0.8-0.74l1.02,0.23c0.06,0,0.11,0,0.17-0.06c0.06-0.06,0.06-0.11,0-0.17
	l-0.4-0.8l0.57-0.91C104.38,52.6,104.38,52.54,104.33,52.48z"/>
<path class="st0" d="M121.28,36.15c-0.28-0.11-0.63,0-0.74,0.28L112.8,55.1c-0.11,0.28,0,0.63,0.28,0.74
	c0.06,0.06,0.17,0.06,0.23,0.06c0.23,0,0.46-0.11,0.51-0.34l7.74-18.66C121.74,36.61,121.57,36.27,121.28,36.15z"/>
<path class="st0" d="M125.26,26.54c0.06,0.06,0.17,0.06,0.23,0.06c0.23,0,0.46-0.11,0.51-0.34l6.2-14.91c0.11-0.28,0-0.63-0.28-0.74
	c-0.28-0.11-0.63,0-0.74,0.28l-6.2,14.91C124.87,26.08,124.98,26.42,125.26,26.54z"/>
<path class="st0" d="M111.95,45.2c0.17,0,0.28-0.06,0.4-0.17l5.97-6.6c0.23-0.23,0.17-0.57-0.06-0.8c-0.23-0.23-0.57-0.17-0.8,0.06
	l-5.97,6.54c-0.23,0.23-0.17,0.57,0.06,0.8C111.67,45.14,111.78,45.2,111.95,45.2z"/>
<path class="st0" d="M110.47,46c-0.23-0.23-0.57-0.23-0.8,0l-1.99,2.05c-0.23,0.23-0.23,0.57,0,0.8c0.11,0.11,0.23,0.17,0.4,0.17
	c0.17,0,0.28-0.06,0.4-0.17l1.99-2.05C110.7,46.56,110.7,46.22,110.47,46z"/>
<path class="st0" d="M125.21,29.67c0.11,0.11,0.23,0.17,0.4,0.17c0.17,0,0.28-0.06,0.4-0.17l7.85-8.71c0.23-0.23,0.17-0.57-0.06-0.8
	c-0.23-0.23-0.57-0.17-0.8,0.06l-7.8,8.65C124.98,29.1,124.98,29.44,125.21,29.67z"/>
<path class="st0" d="M121.17,33.42c-0.17-0.28-0.51-0.4-0.8-0.23l-17.98,9.62c-0.28,0.17-0.4,0.51-0.23,0.8
	c0.11,0.17,0.28,0.28,0.51,0.28c0.11,0,0.17,0,0.28-0.06l17.98-9.62C121.22,34.05,121.28,33.71,121.17,33.42z"/>
<path class="st0" d="M128.62,28.93c0.11,0.17,0.28,0.28,0.51,0.28c0.11,0,0.17,0,0.28-0.06l14.05-7.51c0.28-0.17,0.4-0.51,0.23-0.8
	c-0.17-0.28-0.51-0.4-0.8-0.23l-14.05,7.57C128.56,28.3,128.51,28.7,128.62,28.93z"/>
<path class="st0" d="M103.7,35.98l11.44-1.71c0.28-0.06,0.51-0.34,0.46-0.63s-0.34-0.51-0.63-0.46l-11.44,1.71
	c-0.28,0.06-0.51,0.34-0.46,0.63c0.06,0.28,0.28,0.51,0.57,0.51C103.64,35.98,103.64,35.98,103.7,35.98z"/>
<path class="st0" d="M124.24,32.74h0.06l18.61-2.73c0.28-0.06,0.51-0.34,0.46-0.63c-0.06-0.28-0.34-0.51-0.63-0.46l-18.61,2.73
	c-0.28,0.06-0.51,0.34-0.46,0.63C123.73,32.51,123.96,32.74,124.24,32.74z"/>
<path class="st0" d="M100,28.53l16.05,3.19c0.06,0,0.06,0,0.11,0c0.28,0,0.51-0.17,0.57-0.46c0.06-0.28-0.11-0.63-0.46-0.68
	l-16.05-3.19c-0.28-0.06-0.63,0.11-0.68,0.46C99.49,28.19,99.66,28.47,100,28.53z"/>
<path class="st0" d="M129.42,33.65c-0.06,0.28,0.11,0.63,0.46,0.68l13.88,2.79c0.06,0,0.06,0,0.11,0c0.28,0,0.51-0.17,0.57-0.46
	c0.06-0.28-0.11-0.63-0.46-0.68l-13.88-2.79C129.76,33.14,129.48,33.36,129.42,33.65z"/>
<path class="st0" d="M134.71,40.42c0.11,0.06,0.17,0.06,0.28,0.06c0.17,0,0.4-0.11,0.51-0.28c0.17-0.28,0.06-0.63-0.17-0.8
	l-8.48-5.06c-0.28-0.17-0.63-0.06-0.8,0.17c-0.17,0.28-0.06,0.63,0.17,0.8L134.71,40.42z"/>
<path class="st0" d="M120.14,31.03c0.17-0.28,0.06-0.63-0.17-0.8l-10.01-5.97c-0.28-0.17-0.63-0.06-0.8,0.17
	c-0.17,0.28-0.06,0.63,0.17,0.8l10.01,6.03c0.11,0.06,0.17,0.06,0.28,0.06C119.86,31.32,120.03,31.2,120.14,31.03z"/>
<path class="st0" d="M138.18,42.41c0.17,0,0.4-0.11,0.51-0.28c0.17-0.28,0.06-0.63-0.17-0.8l-0.8-0.46
	c-0.28-0.17-0.63-0.06-0.8,0.17c-0.17,0.28-0.06,0.63,0.17,0.8l0.8,0.46C138.01,42.41,138.07,42.41,138.18,42.41z"/>
<path class="st0" d="M106.32,22.72c-0.17,0.28-0.06,0.63,0.17,0.8l0.8,0.46c0.11,0.06,0.17,0.06,0.28,0.06
	c0.17,0,0.4-0.11,0.51-0.28c0.17-0.28,0.06-0.63-0.17-0.8l-0.8-0.46C106.83,22.33,106.49,22.44,106.32,22.72z"/>
<path class="st0" d="M137.21,50.77c0.11,0,0.23-0.06,0.34-0.11c0.23-0.17,0.28-0.57,0.06-0.8l-9.67-11.83
	c-0.17-0.23-0.57-0.28-0.8-0.06c-0.23,0.17-0.28,0.57-0.06,0.8l9.67,11.83C136.87,50.72,137.04,50.77,137.21,50.77z"/>
<path class="st0" d="M118.1,27.5c0.11,0.11,0.28,0.23,0.46,0.23c0.11,0,0.23-0.06,0.34-0.11c0.23-0.17,0.28-0.57,0.06-0.8
	l-9.67-11.83c-0.23-0.23-0.57-0.28-0.8-0.06c-0.23,0.17-0.28,0.57-0.06,0.8L118.1,27.5z"/>
<path class="st0" d="M129.36,51.8c0.06,0,0.11,0,0.17-0.06c0.28-0.11,0.46-0.46,0.34-0.74l-5.86-16.5
	c-0.11-0.28-0.46-0.46-0.74-0.34c-0.28,0.11-0.46,0.46-0.34,0.74l5.86,16.5C128.96,51.63,129.13,51.8,129.36,51.8z"/>
<path class="st0" d="M115.82,14.76l5.86,16.5c0.06,0.23,0.28,0.4,0.51,0.4c0.06,0,0.11,0,0.17-0.06c0.28-0.11,0.46-0.46,0.34-0.74
	l-5.86-16.5c-0.11-0.28-0.46-0.46-0.74-0.34C115.82,14.13,115.71,14.47,115.82,14.76z"/>
<path class="st0" d="M115.08,12.54c0.06,0.23,0.28,0.4,0.51,0.4c0.06,0,0.11,0,0.17-0.06c0.28-0.11,0.46-0.46,0.34-0.74l-0.68-1.88
	c-0.11-0.28-0.46-0.46-0.74-0.34c-0.28,0.11-0.46,0.46-0.34,0.74L115.08,12.54z"/>
<path class="st0" d="M129.76,54.13l0.68,1.88c0.06,0.23,0.28,0.4,0.51,0.4c0.06,0,0.11,0,0.17-0.06c0.28-0.11,0.46-0.46,0.34-0.74
	l-0.68-1.88c-0.11-0.28-0.46-0.46-0.74-0.34C129.82,53.56,129.65,53.85,129.76,54.13z"/>
<path class="st0" d="M122.76,42.07c-0.34,0-0.57,0.23-0.57,0.57l-0.06,12.75c0,0.34,0.23,0.57,0.57,0.57l0,0
	c0.34,0,0.57-0.23,0.57-0.57l0.06-12.75C123.33,42.35,123.05,42.07,122.76,42.07L122.76,42.07z"/>
<path class="st0" d="M123.16,28.02L123.16,28.02c0.34,0,0.57-0.23,0.57-0.57l0.06-15.42c0-0.34-0.23-0.57-0.57-0.57l0,0
	c-0.34,0-0.57,0.23-0.57,0.57l-0.06,15.42C122.59,27.79,122.87,28.02,123.16,28.02z"/>
</svg>
